# xmcd
# 
# Track frame offsets:
#     182
#     26942
#     60030
#     72847
#     85217
#     98837
#     137340
#     165375
#     172967
#     200560
#     224187
# 
# Disc length: 3379
# 
# Revision: 1
# Processed by: cddbd v1.5.2PL0 Copyright (c) Steve Scherf et al.
# Submitted via: fre:ac v1.0.31
# 
DISCID=930d310b
DTITLE=Jazz - Jazz For Romance
DYEAR=0
DGENRE=Jazz
TTITLE0=Sound of Love
TTITLE1=Autumn Leaves
TTITLE2=I've Never Been in Love Before
TTITLE3=Prelude to a Kiss
TTITLE4=Michelle
TTITLE5=Stardust
TTITLE6=You Taught My Heart to Sing
TTITLE7=Lover's Concherto
TTITLE8=My Funny Valentine
TTITLE9=This Could Be the Start of Something New
TTITLE10=Sweet Sue
EXTD=
EXTT0=
EXTT1=
EXTT2=
EXTT3=
EXTT4=
EXTT5=
EXTT6=
EXTT7=
EXTT8=
EXTT9=
EXTT10=
PLAYORDER=
